Coordinates
version=1
nRows=60
nColumns=12
inDegrees=yes

Units are S.I. units (second, meters, Newtons, ...)
Angles are in degrees

endheader
time	SC_y	SC_z	SC_x	AC_y	AC_z	AC_x	GH_y	GH_z	GH_yy	EL_x	PS_y
       0.0               -33.2           2.56           39.0           52.6         -6.292          -17.9         -33.72         -13.88        -0.2812          134.5          82.67
   0.03944               -33.2          2.561           39.0           52.6         -6.292         -17.89         -33.72         -13.88        -0.2718          134.4          82.67
   0.07888               -33.2          2.563          38.99           52.6         -6.292         -17.89         -33.73         -13.88        -0.2617          134.4          82.68
    0.1183               -33.2          2.565          38.99           52.6         -6.292         -17.88         -33.74         -13.88         -0.251          134.4          82.68
    0.1578               -33.2          2.568          38.98           52.6         -6.292         -17.87         -33.75         -13.88        -0.2396          134.4          82.69
    0.1972               -33.2           2.57          38.98           52.6         -6.293         -17.87         -33.76         -13.88        -0.2275          134.4           82.7
    0.2366               -33.2          2.572          38.97           52.6         -6.293         -17.86         -33.77         -13.88        -0.2145          134.4          82.71
    0.2761               -33.2          2.575          38.97           52.6         -6.293         -17.85         -33.78         -13.88        -0.2006          134.4          82.71
    0.3155               -33.2          2.578          38.96          52.59         -6.293         -17.84         -33.79         -13.88        -0.1858          134.4          82.72
     0.355               -33.2          2.581          38.95          52.59         -6.293         -17.83          -33.8         -13.88        -0.1698          134.3          82.73
    0.3944               -33.2          2.584          38.95          52.59         -6.293         -17.82         -33.82         -13.88        -0.1527          134.3          82.74
    0.4338               -33.2          2.588          38.94          52.59         -6.294         -17.81         -33.83         -13.88        -0.1343          134.3          82.75
    0.4733               -33.2          2.592          38.93          52.59         -6.294          -17.8         -33.85         -13.88        -0.1145          134.3          82.77
    0.5127               -33.2          2.596          38.92          52.58         -6.294         -17.79         -33.86         -13.88       -0.09301          134.3          82.78
    0.5521               -33.2            2.6          38.91          52.58         -6.294         -17.78         -33.88         -13.89       -0.06981          134.2          82.79
    0.5916               -33.2          2.605           38.9          52.58         -6.295         -17.76          -33.9         -13.89       -0.04464          134.2          82.81
     0.631               -33.2           2.61          38.89          52.58         -6.295         -17.75         -33.92         -13.89       -0.01729          134.2          82.83
    0.6705              -33.19          2.616          38.87          52.57         -6.295         -17.73         -33.95         -13.89         0.0125          134.1          82.84
    0.7099              -33.19          2.623          38.86          52.57         -6.296         -17.71         -33.97         -13.89        0.04504          134.1          82.86
    0.7493              -33.19          2.629          38.84          52.57         -6.296         -17.69          -34.0         -13.89        0.08066          134.1          82.88
    0.7888              -33.19          2.637          38.83          52.56         -6.296         -17.67         -34.03         -13.89         0.1198          134.0          82.91
    0.8282              -33.19          2.645          38.81          52.56         -6.297         -17.64         -34.07         -13.89         0.1628          134.0          82.93
    0.8677              -33.19          2.654          38.78          52.55         -6.297         -17.62          -34.1          -13.9         0.2104          133.9          82.96
    0.9071              -33.19          2.665          38.76          52.55         -6.298         -17.59         -34.15          -13.9         0.2631          133.9          82.99
    0.9465              -33.19          2.676          38.74          52.54         -6.299         -17.55         -34.19          -13.9         0.3216          133.8          83.03
     0.986              -33.19          2.688          38.71          52.54         -6.299         -17.52         -34.24          -13.9          0.387          133.8          83.07
     1.025              -33.19          2.703          38.67          52.53           -6.3         -17.48          -34.3         -13.91         0.4602          133.7          83.11
     1.065              -33.18          2.718          38.64          52.52         -6.301         -17.43         -34.37         -13.91         0.5425          133.6          83.16
     1.104              -33.18          2.736           38.6          52.51         -6.302         -17.38         -34.44         -13.91         0.6356          133.5          83.22
     1.144              -33.18          2.757          38.55           52.5         -6.303         -17.32         -34.52         -13.92         0.7412          133.4          83.28
     1.183              -33.18           2.78           38.5          52.49         -6.304         -17.25         -34.62         -13.92         0.8618          133.3          83.36
     1.223              -33.17          2.807          38.43          52.47         -6.306         -17.17         -34.73         -13.93            1.0          133.1          83.44
     1.262              -33.17          2.837          38.36          52.46         -6.308         -17.08         -34.85         -13.93           1.16          132.9          83.54
     1.301              -33.17          2.873          38.28          52.44          -6.31         -16.97          -35.0         -13.94          1.346          132.8          83.65
     1.341              -33.16          2.915          38.19          52.41         -6.312         -16.85         -35.17         -13.95          1.563          132.5          83.78
      1.38              -33.16          2.964          38.07          52.39         -6.315          -16.7         -35.37         -13.96          1.819          132.3          83.94
      1.42              -33.15          3.023          37.94          52.36         -6.318         -16.53         -35.61         -13.97          2.123          131.9          84.12
     1.459              -33.14          3.093          37.78          52.32         -6.322         -16.32          -35.9         -13.99          2.488          131.6          84.34
     1.499              -33.13          3.179          37.58          52.27         -6.327         -16.07         -36.25         -14.01          2.929          131.1          84.61
     1.538              -33.12          3.282          37.34          52.22         -6.333         -15.76         -36.67         -14.03          3.469          130.5          84.93
     1.578              -33.11          3.411          37.05          52.15          -6.34         -15.38          -37.2         -14.05          4.134          129.8          85.34
     1.617              -33.09          3.571          36.68          52.06         -6.349         -14.91         -37.85         -14.09          4.964          129.0          85.84
     1.656              -33.07          3.772          36.21          51.96         -6.361         -14.32         -38.68         -14.13          6.009          127.9          86.47
     1.696              -33.04          4.028          35.63          51.82         -6.375         -13.56         -39.72         -14.18          7.338          126.5          87.27
     1.735              -33.01          4.356          34.87          51.64         -6.394         -12.59         -41.06         -14.25          9.038          124.7           88.3
     1.775              -32.96          4.777           33.9          51.42         -6.418         -11.35         -42.79         -14.34          11.22          122.4          89.62
     1.814              -32.91          5.314          32.67          51.13         -6.448         -9.762         -44.98         -14.45          14.01          119.5          91.31
     1.854              -32.84           5.99          31.12          50.77         -6.487         -7.766         -47.75         -14.59          17.51          115.9          93.43
     1.893              -32.75          6.813          29.22          50.33         -6.533         -5.334         -51.12         -14.76          21.79          111.4          96.01
     1.933              -32.65          7.768          27.03          49.82         -6.587         -2.515         -55.02         -14.96          26.74          106.2          99.01
     1.972              -32.54          8.801          24.65          49.27         -6.646         0.5372         -59.25         -15.17           32.1          100.6          102.2
     2.011              -32.43          9.835          22.28          48.72         -6.705           3.59         -63.48         -15.38          37.46          95.03          105.5
     2.051              -32.33          10.79          20.08          48.21         -6.759          6.409         -67.38         -15.58          42.41          89.85          108.5
      2.09              -32.24          11.61          18.19          47.77         -6.806          8.841         -70.75         -15.75          46.68          85.39          111.1
      2.13              -32.17          12.29          16.63           47.4         -6.844          10.84         -73.51         -15.89          50.19          81.73          113.2
     2.169              -32.11          12.83           15.4          47.12         -6.874          12.42         -75.71          -16.0          52.98          78.82          114.9
     2.209              -32.06          13.25          14.43          46.89         -6.898          13.67         -77.43         -16.09          55.16          76.54          116.2
     2.248              -32.03          13.57          13.68          46.72         -6.917          14.63         -78.77         -16.16          56.86          74.76          117.2
     2.287               -32.0          13.83          13.09          46.58         -6.931          15.39         -79.82         -16.21          58.19          73.37          118.0
     2.327              -31.98          14.03          12.62          46.47         -6.943          15.99         -80.65         -16.25          59.23          72.28          118.7
